<svg width="1500" height="283" viewBox="0 0 1500 283" fill="none" xmlns="http://www.w3.org/2000/svg">
<rect width="1500" height="283" fill="#0D1116"/>
<path d="M1321 210H1420" stroke="white" stroke-width="5" stroke-linecap="round"/>
<path d="M548.679 154.696V189H540.487V108.744H591.175V116.296H548.679V147.4H586.439V154.696H548.679ZM670.681 148.68C670.681 163.187 667.908 173.683 662.361 180.168C656.9 186.653 647.94 189.896 635.481 189.896C621.913 189.896 612.612 186.909 607.577 180.936C602.628 174.963 600.153 164.211 600.153 148.68C600.153 134.173 602.884 123.677 608.345 117.192C613.892 110.707 622.937 107.464 635.481 107.464C648.964 107.464 658.18 110.451 663.129 116.424C668.164 122.397 670.681 133.149 670.681 148.68ZM612.697 173.768C614.574 176.755 617.22 178.931 620.633 180.296C624.046 181.576 628.996 182.216 635.481 182.216C645.55 182.216 652.548 179.699 656.473 174.664C660.398 169.629 662.361 160.968 662.361 148.68C662.361 142.451 662.02 137.331 661.337 133.32C660.654 129.309 659.588 126.067 658.137 123.592C656.345 120.52 653.742 118.344 650.329 117.064C647.001 115.699 642.052 115.016 635.481 115.016C625.326 115.016 618.286 117.533 614.361 122.568C610.436 127.603 608.473 136.307 608.473 148.68C608.473 154.909 608.814 160.029 609.497 164.04C610.18 168.051 611.246 171.293 612.697 173.768ZM754.306 148.68C754.306 163.187 751.533 173.683 745.986 180.168C740.525 186.653 731.565 189.896 719.106 189.896C705.538 189.896 696.237 186.909 691.202 180.936C686.253 174.963 683.778 164.211 683.778 148.68C683.778 134.173 686.509 123.677 691.97 117.192C697.517 110.707 706.562 107.464 719.106 107.464C732.589 107.464 741.805 110.451 746.754 116.424C751.789 122.397 754.306 133.149 754.306 148.68ZM696.322 173.768C698.199 176.755 700.845 178.931 704.258 180.296C707.671 181.576 712.621 182.216 719.106 182.216C729.175 182.216 736.173 179.699 740.098 174.664C744.023 169.629 745.986 160.968 745.986 148.68C745.986 142.451 745.645 137.331 744.962 133.32C744.279 129.309 743.213 126.067 741.762 123.592C739.97 120.52 737.367 118.344 733.954 117.064C730.626 115.699 725.677 115.016 719.106 115.016C708.951 115.016 701.911 117.533 697.986 122.568C694.061 127.603 692.098 136.307 692.098 148.68C692.098 154.909 692.439 160.029 693.122 164.04C693.805 168.051 694.871 171.293 696.322 173.768ZM824.685 108.744V116.296H796.653V189H788.461V116.296H760.429V108.744H824.685ZM889.595 181.192V189H836.987V108.744H888.443V116.296H845.179V144.2H883.707V151.496H845.179V181.192H889.595ZM912.804 159.304V189H904.612V108.744H931.236C942.244 108.744 950.18 110.664 955.044 114.504C959.908 118.344 962.34 124.573 962.34 133.192C962.34 140.275 960.719 145.907 957.476 150.088C954.233 154.269 949.327 157 942.756 158.28L964.26 189H954.404L934.052 159.304H912.804ZM954.02 133.192C954.02 127.133 952.271 122.824 948.772 120.264C945.273 117.619 939.428 116.296 931.236 116.296H912.804V152.008H931.236C939.172 152.008 944.932 150.515 948.516 147.528C952.185 144.541 954.02 139.763 954.02 133.192Z" fill="white"/>
</svg>
