<svg width="1500" height="975" viewBox="0 0 1500 975" fill="none" xmlns="http://www.w3.org/2000/svg">
<rect width="1500" height="975" fill="#0D1116"/>
<path d="M140.148 145.648V154H137.844V131.428H145.332C148.428 131.428 150.66 131.968 152.028 133.048C153.396 134.128 154.08 135.88 154.08 138.304C154.08 140.296 153.624 141.88 152.712 143.056C151.8 144.232 150.42 145 148.572 145.36L154.62 154H151.848L146.124 145.648H140.148ZM151.74 138.304C151.74 136.6 151.248 135.388 150.264 134.668C149.28 133.924 147.636 133.552 145.332 133.552H140.148V143.596H145.332C147.564 143.596 149.184 143.176 150.192 142.336C151.224 141.496 151.74 140.152 151.74 138.304ZM173.488 151.804V154H158.692V131.428H173.164V133.552H160.996V141.4H171.832V143.452H160.996V151.804H173.488ZM177.783 154H175.335L184.407 131.428H186.819L195.855 154H193.371L191.067 148.06H180.123L177.783 154ZM185.559 133.48C185.367 134.08 185.151 134.74 184.911 135.46C184.671 136.18 184.275 137.296 183.723 138.808L180.915 146.008H190.275L187.467 138.808C187.107 137.872 186.759 136.96 186.423 136.072C186.111 135.16 185.823 134.296 185.559 133.48ZM205.312 154H199.157V131.428H205.312C207.641 131.428 209.477 131.62 210.821 132.004C212.189 132.364 213.281 132.964 214.097 133.804C214.889 134.644 215.465 135.784 215.825 137.224C216.209 138.64 216.401 140.464 216.401 142.696C216.401 146.608 215.525 149.476 213.773 151.3C212.021 153.1 209.201 154 205.312 154ZM212.333 135.496C211.709 134.8 210.857 134.308 209.777 134.02C208.697 133.708 207.209 133.552 205.312 133.552H201.461V151.804H205.312C208.505 151.804 210.749 151.108 212.045 149.716C213.365 148.324 214.025 145.984 214.025 142.696C214.025 140.848 213.881 139.36 213.593 138.232C213.329 137.08 212.909 136.168 212.333 135.496ZM241.974 131.428V154H239.778V134.956L232.578 149.428H230.49L223.29 134.92V154H221.094V131.428H224.046L231.57 146.656L239.094 131.428H241.974ZM262.468 151.804V154H247.672V131.428H262.144V133.552H249.976V141.4H260.812V143.452H249.976V151.804H262.468ZM267.88 154H265.576V151.588H267.88V154ZM274.437 154H272.205V136.216H274.221L274.365 137.692H274.437C275.589 137.02 276.597 136.552 277.461 136.288C278.349 136 279.237 135.856 280.125 135.856C281.133 135.856 281.997 136.024 282.717 136.36C283.461 136.672 284.049 137.14 284.481 137.764H284.553C285.633 137.116 286.689 136.636 287.721 136.324C288.777 136.012 289.857 135.856 290.961 135.856C292.665 135.856 293.949 136.3 294.813 137.188C295.701 138.052 296.145 139.336 296.145 141.04V154H293.913V141.292C293.913 140.116 293.601 139.252 292.977 138.7C292.353 138.148 291.381 137.872 290.061 137.872C289.293 137.872 288.489 137.992 287.649 138.232C286.833 138.472 285.993 138.832 285.129 139.312C285.201 139.6 285.249 139.888 285.273 140.176C285.297 140.464 285.309 140.752 285.309 141.04V154H283.077V141.292C283.077 140.116 282.765 139.252 282.141 138.7C281.517 138.148 280.533 137.872 279.189 137.872C278.517 137.872 277.809 137.992 277.065 138.232C276.321 138.472 275.445 138.88 274.437 139.456V154ZM313.27 130.06H315.502V154H313.594L313.414 152.308H313.27C312.55 152.956 311.686 153.448 310.678 153.784C309.694 154.096 308.53 154.252 307.186 154.252C304.738 154.252 302.974 153.532 301.894 152.092C300.838 150.628 300.31 148.288 300.31 145.072C300.31 141.784 300.946 139.432 302.218 138.016C303.514 136.576 305.674 135.856 308.698 135.856C309.586 135.856 310.414 135.928 311.182 136.072C311.974 136.216 312.67 136.42 313.27 136.684V130.06ZM308.914 137.872C306.466 137.872 304.786 138.4 303.874 139.456C302.986 140.512 302.542 142.384 302.542 145.072C302.542 147.688 302.926 149.536 303.694 150.616C304.486 151.672 305.902 152.2 307.942 152.2C308.95 152.2 309.898 152.068 310.786 151.804C311.698 151.54 312.526 151.144 313.27 150.616V138.664C312.598 138.376 311.914 138.172 311.218 138.052C310.522 137.932 309.754 137.872 308.914 137.872Z" fill="white"/>
<path d="M596.304 453.744V534H588.112V453.744H596.304ZM690.727 453.744V534H682.919V466.288L657.319 517.744H649.895L624.295 466.16V534H616.487V453.744H626.983L653.735 507.888L680.487 453.744H690.727ZM711.243 534H702.539L734.795 453.744H743.371L775.499 534H766.667L758.475 512.88H719.563L711.243 534ZM738.891 461.04C738.208 463.173 737.44 465.52 736.587 468.08C735.734 470.64 734.326 474.608 732.363 479.984L722.379 505.584H755.659L745.675 479.984C744.395 476.656 743.158 473.413 741.963 470.256C740.854 467.013 739.83 463.941 738.891 461.04ZM838.473 499.952H815.561V492.656H846.281V530.032C843.892 531.141 839.625 532.251 833.481 533.36C827.337 534.384 821.748 534.896 816.713 534.896C803.657 534.896 794.612 531.824 789.577 525.68C784.628 519.536 782.153 508.912 782.153 493.808C782.153 479.728 785.14 469.317 791.113 462.576C797.172 455.835 806.558 452.464 819.273 452.464C823.71 452.464 827.934 452.592 831.945 452.848C835.956 453.019 839.284 453.317 841.929 453.744V461.04C838.516 460.699 834.804 460.443 830.793 460.272C826.868 460.101 823.028 460.016 819.273 460.016C808.948 460.016 801.566 462.661 797.129 467.952C792.777 473.157 790.601 481.776 790.601 493.808C790.601 499.952 790.942 505.072 791.625 509.168C792.393 513.179 793.545 516.421 795.081 518.896C796.958 521.968 799.646 524.187 803.145 525.552C806.644 526.832 811.593 527.472 817.993 527.472C820.809 527.472 824.137 527.216 827.977 526.704C831.817 526.192 835.316 525.552 838.473 524.784V499.952ZM915.47 526.192V534H862.862V453.744H914.318V461.296H871.054V489.2H909.582V496.496H871.054V526.192H915.47Z" fill="white"/>
<path d="M1232 154H1225.84V131.428H1232C1234.33 131.428 1236.16 131.62 1237.51 132.004C1238.88 132.364 1239.97 132.964 1240.78 133.804C1241.58 134.644 1242.15 135.784 1242.51 137.224C1242.9 138.64 1243.09 140.464 1243.09 142.696C1243.09 146.608 1242.21 149.476 1240.46 151.3C1238.71 153.1 1235.89 154 1232 154ZM1239.02 135.496C1238.4 134.8 1237.54 134.308 1236.46 134.02C1235.38 133.708 1233.9 133.552 1232 133.552H1228.15V151.804H1232C1235.19 151.804 1237.44 151.108 1238.73 149.716C1240.05 148.324 1240.71 145.984 1240.71 142.696C1240.71 140.848 1240.57 139.36 1240.28 138.232C1240.02 137.08 1239.6 136.168 1239.02 135.496ZM1262.58 151.804V154H1247.78V131.428H1262.25V133.552H1250.09V141.4H1260.92V143.452H1250.09V151.804H1262.58ZM1273.07 154L1264.43 131.428H1266.98L1272.67 146.62C1273.05 147.748 1273.39 148.768 1273.68 149.68C1273.99 150.568 1274.25 151.408 1274.47 152.2C1274.76 151.192 1275.06 150.196 1275.37 149.212C1275.68 148.228 1275.97 147.364 1276.23 146.62L1281.92 131.428H1284.44L1275.77 154H1273.07ZM1302.52 151.804V154H1287.72V131.428H1302.19V133.552H1290.02V141.4H1300.86V143.452H1290.02V151.804H1302.52ZM1320.38 151.804V154H1306.74V131.428H1309.04V151.804H1320.38ZM1341.88 142.66C1341.88 146.74 1341.1 149.692 1339.54 151.516C1338 153.34 1335.48 154.252 1331.98 154.252C1328.16 154.252 1325.55 153.412 1324.13 151.732C1322.74 150.052 1322.04 147.028 1322.04 142.66C1322.04 138.58 1322.81 135.628 1324.35 133.804C1325.91 131.98 1328.45 131.068 1331.98 131.068C1335.77 131.068 1338.36 131.908 1339.76 133.588C1341.17 135.268 1341.88 138.292 1341.88 142.66ZM1325.57 149.716C1326.1 150.556 1326.84 151.168 1327.8 151.552C1328.76 151.912 1330.16 152.092 1331.98 152.092C1334.81 152.092 1336.78 151.384 1337.88 149.968C1338.99 148.552 1339.54 146.116 1339.54 142.66C1339.54 140.908 1339.44 139.468 1339.25 138.34C1339.06 137.212 1338.76 136.3 1338.35 135.604C1337.85 134.74 1337.12 134.128 1336.16 133.768C1335.22 133.384 1333.83 133.192 1331.98 133.192C1329.12 133.192 1327.14 133.9 1326.04 135.316C1324.94 136.732 1324.38 139.18 1324.38 142.66C1324.38 144.412 1324.48 145.852 1324.67 146.98C1324.86 148.108 1325.16 149.02 1325.57 149.716ZM1348.87 146.404V154H1346.57V131.428H1354.06C1357.15 131.428 1359.39 131.992 1360.75 133.12C1362.12 134.248 1362.81 136.096 1362.81 138.664C1362.81 141.28 1362.1 143.224 1360.68 144.496C1359.27 145.768 1357.09 146.404 1354.17 146.404H1348.87ZM1360.47 138.664C1360.47 136.84 1359.97 135.532 1358.99 134.74C1358.01 133.948 1356.36 133.552 1354.06 133.552H1348.87V144.352H1354.06C1356.31 144.352 1357.95 143.908 1358.95 143.02C1359.96 142.108 1360.47 140.656 1360.47 138.664Z" fill="white"/>
<path d="M1261 197H1254.84V174.428H1261C1263.33 174.428 1265.16 174.62 1266.51 175.004C1267.88 175.364 1268.97 175.964 1269.78 176.804C1270.58 177.644 1271.15 178.784 1271.51 180.224C1271.9 181.64 1272.09 183.464 1272.09 185.696C1272.09 189.608 1271.21 192.476 1269.46 194.3C1267.71 196.1 1264.89 197 1261 197ZM1268.02 178.496C1267.4 177.8 1266.54 177.308 1265.46 177.02C1264.38 176.708 1262.9 176.552 1261 176.552H1257.15V194.804H1261C1264.19 194.804 1266.44 194.108 1267.73 192.716C1269.05 191.324 1269.71 188.984 1269.71 185.696C1269.71 183.848 1269.57 182.36 1269.28 181.232C1269.02 180.08 1268.6 179.168 1268.02 178.496ZM1291.58 194.804V197H1276.78V174.428H1291.25V176.552H1279.09V184.4H1289.92V186.452H1279.09V194.804H1291.58ZM1304.59 187.208L1298.86 185.84C1297.37 185.48 1296.31 184.88 1295.66 184.04C1295.01 183.2 1294.69 182.024 1294.69 180.512C1294.69 178.28 1295.32 176.648 1296.59 175.616C1297.87 174.584 1299.88 174.068 1302.64 174.068C1303.79 174.068 1304.83 174.128 1305.74 174.248C1306.67 174.344 1307.51 174.5 1308.26 174.716V176.84C1307.47 176.624 1306.59 176.468 1305.63 176.372C1304.67 176.252 1303.66 176.192 1302.61 176.192C1300.54 176.192 1299.09 176.504 1298.25 177.128C1297.41 177.728 1296.99 178.796 1296.99 180.332C1296.99 181.34 1297.19 182.096 1297.6 182.6C1298.01 183.104 1298.68 183.464 1299.62 183.68L1305.34 185.084C1307.19 185.516 1308.43 186.14 1309.05 186.956C1309.67 187.748 1309.99 188.972 1309.99 190.628C1309.99 193.052 1309.36 194.768 1308.11 195.776C1306.87 196.76 1304.87 197.252 1302.14 197.252C1300.67 197.252 1299.26 197.156 1297.89 196.964C1296.52 196.772 1295.44 196.52 1294.65 196.208V194.012C1295.85 194.372 1297.07 194.648 1298.32 194.84C1299.57 195.008 1300.84 195.092 1302.14 195.092C1304.15 195.092 1305.57 194.792 1306.39 194.192C1307.2 193.568 1307.61 192.392 1307.61 190.664C1307.61 189.584 1307.41 188.804 1307 188.324C1306.59 187.844 1305.79 187.472 1304.59 187.208ZM1316.42 174.428V197H1314.12V174.428H1316.42ZM1336.93 187.424H1330.49V185.372H1339.13V195.884C1338.45 196.196 1337.25 196.508 1335.53 196.82C1333.8 197.108 1332.23 197.252 1330.81 197.252C1327.14 197.252 1324.59 196.388 1323.18 194.66C1321.79 192.932 1321.09 189.944 1321.09 185.696C1321.09 181.736 1321.93 178.808 1323.61 176.912C1325.31 175.016 1327.95 174.068 1331.53 174.068C1332.78 174.068 1333.97 174.104 1335.09 174.176C1336.22 174.224 1337.16 174.308 1337.9 174.428V176.48C1336.94 176.384 1335.9 176.312 1334.77 176.264C1333.67 176.216 1332.59 176.192 1331.53 176.192C1328.63 176.192 1326.55 176.936 1325.3 178.424C1324.08 179.888 1323.47 182.312 1323.47 185.696C1323.47 187.424 1323.56 188.864 1323.75 190.016C1323.97 191.144 1324.29 192.056 1324.73 192.752C1325.25 193.616 1326.01 194.24 1326.99 194.624C1327.98 194.984 1329.37 195.164 1331.17 195.164C1331.96 195.164 1332.9 195.092 1333.98 194.948C1335.06 194.804 1336.04 194.624 1336.93 194.408V187.424ZM1361.93 174.428V197H1359.49L1345.99 178.1V197H1343.79V174.428H1346.24L1359.74 193.508V174.428H1361.93Z" fill="white"/>
<path d="M80 73H179" stroke="white" stroke-width="5" stroke-linecap="round"/>
</svg>
